<?xml version="1.0" encoding="utf-8"?>
<!-- Generator: Adobe Illustrator 26.5.0, SVG Export Plug-In . SVG Version: 6.00 Build 0)  -->
<svg version="1.1" id="Layer_1" xmlns="http://www.w3.org/2000/svg" xmlns:xlink="http://www.w3.org/1999/xlink" x="0px" y="0px"
	 viewBox="0 0 93.6 21.9" style="enable-background:new 0 0 93.6 21.9;" xml:space="preserve">
<style type="text/css">
	.st0{fill:#191730;}
</style>
<path className="st0" d="M3.7,16.7l0.1-0.3h5.3l-0.1,0.3H3.7z M9.8,12.9c0.1-0.4,0.1-0.6,0.1-0.8c0-0.2-0.1-0.3-0.3-0.4
	c-0.2-0.1-0.4-0.1-0.8-0.1L9,11.3c0.2,0,0.5,0,0.9,0c0.4,0,0.7,0,1,0c0.4,0,0.8,0,1.1,0s0.6,0,0.8,0l-0.1,0.3c-0.3,0-0.6,0-0.8,0.1
	c-0.2,0.1-0.3,0.2-0.5,0.4c-0.1,0.2-0.2,0.4-0.3,0.8l-2,7.4c-0.1,0.4-0.1,0.6-0.1,0.8c0,0.2,0.1,0.3,0.3,0.4s0.4,0.1,0.8,0.1
	L10,21.9c-0.2,0-0.5,0-0.8,0c-0.3,0-0.7,0-1.1,0c-0.3,0-0.7,0-1,0c-0.4,0-0.6,0-0.9,0l0.1-0.3c0.3,0,0.6-0.1,0.8-0.1
	s0.3-0.2,0.5-0.4c0.1-0.2,0.2-0.4,0.3-0.8L9.8,12.9z M3,20.3c-0.1,0.4-0.1,0.6-0.1,0.8c0,0.2,0.1,0.3,0.3,0.4
	c0.2,0.1,0.4,0.1,0.8,0.1l-0.1,0.3c-0.2,0-0.5,0-0.9,0c-0.3,0-0.7,0-1,0c-0.4,0-0.8,0-1.1,0c-0.3,0-0.6,0-0.8,0l0.1-0.3
	c0.3,0,0.6-0.1,0.8-0.1c0.2-0.1,0.3-0.2,0.4-0.4c0.1-0.2,0.2-0.4,0.3-0.8l2-7.4c0.1-0.4,0.1-0.6,0.1-0.8c0-0.2-0.1-0.3-0.3-0.4
	c-0.2-0.1-0.4-0.1-0.7-0.1l0.1-0.3c0.2,0,0.5,0,0.8,0c0.3,0,0.7,0,1.1,0c0.3,0,0.7,0,1,0c0.3,0,0.6,0,0.9,0l-0.1,0.3
	c-0.3,0-0.6,0-0.8,0.1c-0.2,0.1-0.3,0.2-0.4,0.4c-0.1,0.2-0.2,0.4-0.3,0.8L3,20.3z M21.8,0.7c3.8,0,6.7,0.9,8.5,2.7
	c1.9,1.8,2.8,4.3,2.8,7.7c0,2.2-0.5,4.1-1.4,5.7c-0.9,1.6-2.2,2.9-3.9,3.8s-3.8,1.4-6.3,1.4c-0.3,0-0.7,0-1.2,0c-0.5,0-1,0-1.6,0
	c-0.5,0-1,0-1.5,0c-0.8,0-1.6,0-2.4,0c-0.8,0-1.4,0-1.9,0.1v-0.6c0.7,0,1.1-0.1,1.5-0.2c0.3-0.1,0.6-0.4,0.7-0.7
	c0.1-0.4,0.2-0.9,0.2-1.6V3.9c0-0.7-0.1-1.3-0.2-1.6c-0.1-0.4-0.3-0.6-0.7-0.7c-0.3-0.1-0.8-0.2-1.5-0.2V0.7c0.5,0,1.1,0,1.9,0.1
	c0.8,0,1.6,0,2.3,0c0.7,0,1.5,0,2.4-0.1C20.5,0.7,21.2,0.7,21.8,0.7z M21.5,1.2c-0.9,0-1.5,0.2-1.8,0.5c-0.3,0.3-0.4,1-0.4,2.1v15
	c0,1,0.1,1.7,0.4,2.1c0.3,0.3,0.9,0.5,1.8,0.5c1.9,0,3.3-0.4,4.4-1.2c1.1-0.8,1.8-2,2.2-3.5c0.4-1.5,0.7-3.4,0.7-5.5
	c0-2.2-0.2-4.1-0.7-5.6c-0.5-1.5-1.2-2.6-2.3-3.3C24.7,1.6,23.3,1.2,21.5,1.2z M45.8,0.6l7.3,18.8c0.3,0.7,0.6,1.2,1,1.5
	c0.4,0.3,0.7,0.4,1,0.4v0.6c-0.5,0-1.1-0.1-1.9-0.1c-0.7,0-1.5,0-2.2,0c-0.9,0-1.7,0-2.5,0c-0.8,0-1.4,0-1.9,0.1v-0.6
	c1,0,1.7-0.2,2-0.5c0.3-0.3,0.2-1-0.2-2L43.1,4.6l0.5-0.7l-4.8,12.4c-0.4,1-0.6,1.8-0.7,2.5c-0.1,0.6,0,1.1,0.2,1.5
	c0.2,0.4,0.5,0.6,0.9,0.8c0.4,0.1,0.9,0.2,1.6,0.2v0.6c-0.6,0-1.3-0.1-1.9-0.1c-0.6,0-1.2,0-1.8,0c-0.4,0-0.9,0-1.3,0
	c-0.4,0-0.7,0-1,0.1v-0.6c0.4-0.1,0.9-0.4,1.3-0.8c0.4-0.4,0.9-1.2,1.3-2.2l6.9-17.8c0.2,0,0.5,0,0.8,0C45.3,0.6,45.6,0.6,45.8,0.6z
	 M48.4,13.3v0.6h-8.9l0.3-0.6H48.4z M73,0.7v0.6L62.2,21.2h4c0.8,0,1.5-0.1,2.1-0.3c0.7-0.2,1.2-0.6,1.8-1c0.5-0.5,1-1.1,1.3-1.9
	c0.3-0.8,0.6-1.8,0.7-2.9h0.7c-0.1,0.7-0.1,1.5-0.1,2.6c0,0.4,0,1,0,1.8c0,0.8,0.1,1.6,0.2,2.5c-0.7,0-1.6-0.1-2.4-0.1
	c-0.9,0-1.8,0-2.6,0c-0.9,0-1.7,0-2.4,0c-1.2,0-2.6,0-3.9,0c-1.4,0-2.7,0-3.9,0.1v-0.6L68.5,1.4h-4.1c-0.8,0-1.5,0.1-2.2,0.3
	s-1.2,0.5-1.7,1c-0.5,0.4-0.8,1-1.1,1.8c-0.3,0.8-0.5,1.7-0.7,2.8H58c0-0.3,0.1-0.7,0.1-1.1c0-0.4,0-0.8,0-1.3c0-0.4,0-1-0.1-1.8
	c0-0.8-0.1-1.6-0.2-2.5c0.7,0,1.5,0,2.3,0.1c0.8,0,1.6,0,2.5,0c0.8,0,1.6,0,2.2,0c1.3,0,2.7,0,4.1,0C70.4,0.8,71.8,0.7,73,0.7z
	 M92.6,0.7c-0.1,0.8-0.1,1.6-0.2,2.4c0,0.8,0,1.3,0,1.7c0,0.4,0,0.8,0,1.1c0,0.3,0,0.6,0.1,0.9h-0.7c-0.2-1.4-0.4-2.5-0.8-3.2
	c-0.4-0.8-0.8-1.4-1.5-1.7c-0.6-0.3-1.4-0.5-2.4-0.5h-1.7c-0.6,0-1.1,0-1.4,0.1s-0.5,0.3-0.7,0.6c-0.1,0.3-0.2,0.8-0.2,1.5V19
	c0,0.6,0.1,1.1,0.2,1.5c0.1,0.3,0.3,0.5,0.7,0.6s0.8,0.1,1.4,0.1h1.7c1,0,1.9-0.2,2.5-0.6c0.7-0.4,1.3-1,1.7-1.9
	c0.4-0.9,0.7-2.1,0.9-3.6h0.7C93,15.8,93,16.6,93,17.6c0,0.4,0,1,0,1.8c0,0.8,0.1,1.6,0.2,2.5c-1,0-2.2-0.1-3.5-0.1
	c-1.3,0-2.4,0-3.4,0c-0.5,0-1.1,0-1.8,0c-0.7,0-1.5,0-2.4,0c-0.9,0-1.7,0-2.6,0c-0.9,0-1.7,0-2.5,0v-0.6c0.7,0,1.2-0.1,1.5-0.2
	c0.3-0.1,0.6-0.4,0.7-0.7c0.1-0.4,0.2-0.9,0.2-1.6V3.9c0-0.7-0.1-1.3-0.2-1.6c-0.1-0.4-0.3-0.6-0.7-0.7c-0.3-0.1-0.8-0.2-1.5-0.2
	V0.7c0.8,0,1.6,0,2.5,0.1c0.9,0,1.8,0,2.6,0c0.9,0,1.7,0,2.4,0c0.8,0,1.4,0,1.8,0c0.9,0,2,0,3.1,0C90.6,0.8,91.7,0.7,92.6,0.7z
	 M87.8,10.9c0,0,0,0.1,0,0.3c0,0.2,0,0.3,0,0.3h-5.3c0,0,0-0.1,0-0.3c0-0.2,0-0.3,0-0.3H87.8z M88.7,7c-0.1,1.1-0.1,2-0.1,2.6
	c0,0.6,0,1.1,0,1.6s0,1.1,0,1.7c0,0.6,0.1,1.5,0.2,2.6h-0.7c-0.1-0.7-0.3-1.3-0.5-1.9c-0.2-0.6-0.5-1.1-1-1.5
	c-0.4-0.4-1.1-0.6-1.9-0.6v-0.6c0.6,0,1.1-0.1,1.5-0.4c0.4-0.3,0.7-0.6,1-1c0.2-0.4,0.4-0.9,0.5-1.3C87.8,7.8,87.9,7.4,88,7H88.7z"
	/>
</svg>
