<?xml version="1.0" encoding="utf-8"?>
<!-- Generator: Adobe Illustrator 26.5.0, SVG Export Plug-In . SVG Version: 6.00 Build 0)  -->
<svg version="1.1" id="Layer_1" xmlns="http://www.w3.org/2000/svg" xmlns:xlink="http://www.w3.org/1999/xlink" x="0px" y="0px"
	 viewBox="0 0 24 24" style="enable-background:new 0 0 24 24;" xml:space="preserve">
<style type="text/css">
	.st0{clip-path:url(#SVGID_00000068641174608489882690000002992616717348665989_);}
	.st1{fill:none;stroke:#202020;stroke-width:2;stroke-miterlimit:10;}
	.st2{fill:none;stroke:#202020;stroke-width:2;stroke-linecap:square;stroke-miterlimit:10;}
</style>
<g>
	<defs>
		<rect id="SVGID_1_" x="0.6" width="24" height="24"/>
	</defs>
	<clipPath id="SVGID_00000111186010927146672190000012626479724872866974_">
		<use xlink:href="#SVGID_1_"  style="overflow:visible;"/>
	</clipPath>
	<g style="clip-path:url(#SVGID_00000111186010927146672190000012626479724872866974_);">
		<path class="st1" d="M5.8,9h9.6"/>
		<path class="st1" d="M14.6,5c0-0.8,0.2-1.6,0.7-2.2s1.1-1.2,1.8-1.5c0.7-0.3,1.5-0.4,2.3-0.2c0.8,0.2,1.5,0.5,2,1.1s0.9,1.3,1.1,2
			c0.2,0.8,0.1,1.6-0.2,2.3c-0.3,0.7-0.8,1.4-1.5,1.8C20.1,8.8,19.3,9,18.6,9"/>
		<path class="st2" d="M18.6,5l-8,10l-8-10H18.6z"/>
		<path class="st2" d="M10.6,15v8"/>
		<path class="st2" d="M5.6,23h10"/>
	</g>
</g>
</svg>
