<?xml version="1.0" encoding="utf-8"?>
<!-- Generator: Adobe Illustrator 26.5.0, SVG Export Plug-In . SVG Version: 6.00 Build 0)  -->
<svg version="1.1" id="Layer_1" xmlns="http://www.w3.org/2000/svg" xmlns:xlink="http://www.w3.org/1999/xlink" x="0px" y="0px"
	 viewBox="0 0 24 24" style="enable-background:new 0 0 24 24;" xml:space="preserve">
<style type="text/css">
	.st0{clip-path:url(#SVGID_00000155138711299092851250000005554622656171941029_);}
	.st1{fill:none;stroke:#202020;stroke-width:2;stroke-miterlimit:10;}
	.st2{fill:#202020;}
</style>
<g>
	<defs>
		<rect id="SVGID_1_" x="0" width="24" height="24"/>
	</defs>
	<clipPath id="SVGID_00000116206633862680521720000018365478536770270374_">
		<use xlink:href="#SVGID_1_"  style="overflow:visible;"/>
	</clipPath>
	<g style="clip-path:url(#SVGID_00000116206633862680521720000018365478536770270374_);">
		<path class="st1" d="M5,3L1,2v8l4-1"/>
		<path class="st2" d="M18,8c1.1,0,2-0.9,2-2s-0.9-2-2-2s-2,0.9-2,2S16.9,8,18,8z"/>
		<path class="st1" d="M23,6c0-0.7-0.1-1.3-0.4-1.9S22,2.9,21.5,2.5c-0.5-0.5-1-0.8-1.6-1.1C19.3,1.1,18.7,1,18,1
			c-0.3,0-0.8,0.1-0.8,0.1L5,3v6l6.4,1c0.4,0.1,0.8,0.2,1.2,0.4c0.4,0.2,0.7,0.5,0.9,0.9c0.2,0.4,0.4,0.7,0.4,1.2
			c0.1,0.4,0,0.8-0.1,1.2l-1.8,6.7C12,20.7,12,21,12,21.3c0.1,0.3,0.2,0.6,0.4,0.9c0.2,0.3,0.4,0.5,0.7,0.6c0.3,0.1,0.6,0.2,0.9,0.2
			c0.4,0,0.9-0.1,1.2-0.4c0.3-0.3,0.6-0.6,0.7-1.1l2.8-10.6c1.2-0.2,2.3-0.8,3-1.7C22.6,8.3,23,7.2,23,6L23,6z"/>
	</g>
</g>
</svg>
