<?xml version="1.0" encoding="utf-8"?>
<!-- Generator: Adobe Illustrator 26.5.0, SVG Export Plug-In . SVG Version: 6.00 Build 0)  -->
<svg version="1.1" id="Layer_1" xmlns="http://www.w3.org/2000/svg" xmlns:xlink="http://www.w3.org/1999/xlink" x="0px" y="0px"
	 viewBox="0 0 24 24" style="enable-background:new 0 0 24 24;" xml:space="preserve">
<style type="text/css">
	.st0{fill:#202020;}
	.st1{fill:none;stroke:#202020;stroke-width:2;stroke-linecap:square;stroke-miterlimit:10;}
	.st2{fill:none;stroke:#202020;stroke-width:2;stroke-miterlimit:10;}
</style>
<path class="st0" d="M5.1,5c0.6,0,1-0.4,1-1s-0.4-1-1-1s-1,0.4-1,1S4.6,5,5.1,5z"/>
<path class="st0" d="M2.1,2c0.6,0,1-0.4,1-1c0-0.6-0.4-1-1-1c-0.6,0-1,0.4-1,1C1.1,1.6,1.6,2,2.1,2z"/>
<path class="st0" d="M2.1,8c0.6,0,1-0.4,1-1s-0.4-1-1-1c-0.6,0-1,0.4-1,1S1.6,8,2.1,8z"/>
<path class="st1" d="M20.1,6v15c0,0.5-0.2,1-0.6,1.4c-0.4,0.4-0.9,0.6-1.4,0.6h-6c-0.5,0-1-0.2-1.4-0.6c-0.4-0.4-0.6-0.9-0.6-1.4v-4
	l5-7"/>
<path class="st2" d="M10.1,11l3.6-5"/>
<path class="st1" d="M9.1,1h9c1.1,0,2.1,0.4,2.8,1.2c0.8,0.8,1.2,1.8,1.2,2.8v1h-13V1z"/>
</svg>
