<?xml version="1.0" encoding="utf-8"?>
<!-- Generator: Adobe Illustrator 26.5.0, SVG Export Plug-In . SVG Version: 6.00 Build 0)  -->
<svg version="1.1" id="Layer_1" xmlns="http://www.w3.org/2000/svg" xmlns:xlink="http://www.w3.org/1999/xlink" x="0px" y="0px"
	 viewBox="0 0 24 24" style="enable-background:new 0 0 24 24;" xml:space="preserve">
<style type="text/css">
	.st0{fill:none;stroke:#202020;stroke-width:2;stroke-linecap:square;stroke-miterlimit:10;}
	.st1{fill:none;stroke:#202020;stroke-width:2;stroke-miterlimit:10;}
</style>
<path class="st0" d="M18.4,23h-6.1c-0.3,0-0.5-0.1-0.7-0.3c-0.2-0.2-0.3-0.4-0.3-0.7L10.3,10h10l-0.9,12.1c0,0.3-0.1,0.5-0.3,0.7
	C18.9,22.9,18.6,23,18.4,23z"/>
<path class="st1" d="M11.2,7c-0.4-1-0.7-2-0.9-3V1h-4v3c0,1.3-1.8,4.5-1.8,7.9s0.5,4.6,0.5,6.2c0,1.6-0.6,2.5-0.6,3.4
	c0,0.4,0.1,0.7,0.4,1c0.2,0.3,0.6,0.4,1,0.5h2.7"/>
</svg>
