<?xml version="1.0" encoding="utf-8"?>
<!-- Generator: Adobe Illustrator 26.5.0, SVG Export Plug-In . SVG Version: 6.00 Build 0)  -->
<svg version="1.1" id="Layer_1" xmlns="http://www.w3.org/2000/svg" xmlns:xlink="http://www.w3.org/1999/xlink" x="0px" y="0px"
	 viewBox="0 0 24 24" style="enable-background:new 0 0 24 24;" xml:space="preserve">
<style type="text/css">
	.st0{fill:none;stroke:#202020;stroke-width:2;stroke-linecap:square;stroke-miterlimit:10;}
	.st1{fill:none;stroke:#202020;stroke-width:2;stroke-miterlimit:10;}
</style>
<path class="st0" d="M12,19.2c2.7,0,5.2-1.1,7.1-2.9c1.9-1.9,2.9-4.4,2.9-7.1c-1.2,0-2.4,0.2-3.5,0.7"/>
<path class="st0" d="M12,19.2c-1.3,0-2.6-0.3-3.8-0.8c-1.2-0.5-2.3-1.2-3.2-2.2C3.1,14.4,2,11.8,2,9.2c1.2,0,2.4,0.2,3.5,0.7"/>
<path class="st0" d="M12,19.2c0.7,0.7,1.6,1.2,2.5,1.5c0.9,0.3,1.9,0.5,2.9,0.5c1,0,1.9-0.3,2.8-0.7c0.9-0.4,1.7-1,2.4-1.7
	c-0.3-0.3-0.7-0.6-1-0.8"/>
<path class="st1" d="M12,2.2c-2.3,2.3-3.5,5.3-3.5,8.5c0,3.2,1.3,6.2,3.5,8.5c2.3-2.3,3.5-5.3,3.5-8.5C15.5,7.5,14.3,4.4,12,2.2
	L12,2.2z"/>
<path class="st0" d="M12,19.2c-0.7,0.7-1.6,1.2-2.5,1.5c-0.9,0.3-1.9,0.5-2.9,0.5c-1,0-1.9-0.3-2.8-0.7c-0.9-0.4-1.7-1-2.4-1.7
	c0.3-0.3,0.7-0.6,1-0.8"/>
</svg>
