<?xml version="1.0" encoding="utf-8"?>
<!-- Generator: Adobe Illustrator 26.5.0, SVG Export Plug-In . SVG Version: 6.00 Build 0)  -->
<svg version="1.1" id="Layer_1" xmlns="http://www.w3.org/2000/svg" xmlns:xlink="http://www.w3.org/1999/xlink" x="0px" y="0px"
	 viewBox="0 0 24 24" style="enable-background:new 0 0 24 24;" xml:space="preserve">
<style type="text/css">
	.st0{fill:none;stroke:#202020;stroke-width:2;stroke-miterlimit:10;}
	.st1{fill:none;stroke:#202020;stroke-width:2;stroke-linecap:square;stroke-miterlimit:10;}
</style>
<path class="st0" d="M21,10.3l-1.5-4.6c-0.1-0.4-0.4-0.7-0.7-1c-0.3-0.2-0.8-0.4-1.2-0.4H6.4C6,4.3,5.6,4.5,5.3,4.7
	C4.9,5,4.7,5.3,4.5,5.7L3,10.3"/>
<path class="st1" d="M6,19.3v3H1v-3"/>
<path class="st1" d="M23,19.3v3h-5v-3"/>
<path class="st1" d="M23,19.3H1v-6.2c0-0.5,0.2-1,0.6-1.4L3,10.3h18l1.4,1.4c0.4,0.4,0.6,0.9,0.6,1.4V19.3z"/>
<path class="st1" d="M5,14.3h2"/>
<path class="st1" d="M17,14.3h2"/>
<path class="st1" d="M10,1.3h4"/>
</svg>
